<svg width="105" height="105" viewBox="0 0 105 105" fill="none" xmlns="http://www.w3.org/2000/svg">
<rect width="105" height="105" rx="5" fill="white"/>
<path d="M26.5339 54.708V45.4426C26.5339 44.7736 26.8684 44.4391 27.5374 44.4391H30.2134C30.8823 44.4391 31.2168 44.7736 31.2168 45.4426V53.5039C31.2168 55.9345 31.3841 57.4676 31.7186 58.1031C32.0531 58.7387 32.7555 59.0565 33.8259 59.0565C34.9632 59.0565 35.8273 58.6049 36.4182 57.7018C37.0092 56.7875 37.3046 54.8976 37.3046 52.0321V45.4426C37.3046 44.7736 37.6391 44.4391 38.3081 44.4391H40.9841C41.653 44.4391 41.9875 44.7736 41.9875 45.4426V60.9965C41.9875 61.6655 41.653 62 40.9841 62H38.3416C37.6726 62 37.3381 61.6655 37.3381 60.9965V60.0265H37.2712C36.7583 60.9073 36.106 61.515 35.3144 61.8495C34.5228 62.1728 33.5862 62.3345 32.5046 62.3345C30.7987 62.3345 29.3771 61.7882 28.2399 60.6955C27.1026 59.6028 26.5339 57.607 26.5339 54.708ZM46.5126 62C45.8436 62 45.5091 61.6655 45.5091 60.9965V41.2447C45.5091 40.7429 45.6262 40.2858 45.8603 39.8732L47.1481 37.6154C47.3934 37.1917 47.6833 36.9799 48.0178 36.9799H49.1885C49.8575 36.9799 50.192 37.3144 50.192 37.9834V60.9965C50.192 61.6655 49.8575 62 49.1885 62H46.5126ZM54.717 62C54.048 62 53.7135 61.6655 53.7135 60.9965V45.4426C53.7135 44.7736 54.048 44.4391 54.717 44.4391H57.3595C58.0285 44.4391 58.363 44.7736 58.363 45.4426V46.4126H58.4299C58.7532 45.699 59.2996 45.1359 60.0689 44.7234C60.8383 44.3109 61.5574 44.1046 62.2264 44.1046C63.5644 44.1046 64.6013 44.4168 65.3372 45.0412C66.0842 45.6656 66.5971 46.3624 66.8759 47.1318H66.9428C67.9128 45.8718 68.7881 45.0523 69.5685 44.6732C70.3602 44.2941 71.3692 44.1046 72.5957 44.1046C74.2459 44.1046 75.634 44.6509 76.7602 45.7436C77.8974 46.8363 78.4661 48.8321 78.4661 51.731V60.9965C78.4661 61.6655 78.1316 62 77.4626 62H74.7866C74.1177 62 73.7832 61.6655 73.7832 60.9965V52.9352C73.7832 50.5046 73.6159 48.9715 73.2814 48.3359C72.9581 47.7004 72.3783 47.3826 71.5421 47.3826C70.7616 47.3826 70.048 47.8398 69.4013 48.7541C68.7546 49.6683 68.4313 51.5527 68.4313 54.407V60.9965C68.4313 61.6655 68.0968 62 67.4278 62H64.7518C64.0828 62 63.7484 61.6655 63.7484 60.9965V52.9352C63.7484 50.5046 63.5811 48.9715 63.2466 48.3359C62.9233 47.7004 62.3435 47.3826 61.5072 47.3826C60.7268 47.3826 60.0132 47.8398 59.3665 48.7541C58.7198 49.6572 58.3965 51.5415 58.3965 54.407V60.9965C58.3965 61.6655 58.062 62 57.393 62H54.717Z" fill="#202020"/>
</svg>
